<?xml version="1.0" encoding="UTF-8"?>
<svg width="288mm" height="288mm" version="1.1" viewBox="0 0 288 288" xmlns="http://www.w3.org/2000/svg">
<defs>
<clipPath id="a">
<rect y="687" width="1095" height="1100"/>
</clipPath>
</defs>
<g transform="matrix(.26398 0 0 .26398 0 -1.317)">
<g transform="translate(0,-687)" clip-path="url(#a)" fill-rule="evenodd">
<path d="M880 805 l0 -445 70 0 70 0 0 183 c0 100 5 199 10 219 11 40 66 94
105 104 43 11 94 -5 113 -34 15 -22 17 -58 20 -249 l4 -223 70 0 70 0 -4 243
c-3 223 -5 246 -24 288 -52 112 -223 144 -331 62 l-32 -24 -3 158 -3 158 -67
3 -68 3 0 -446z"/>
<path d="M5597 1243 c-4 -3 -7 -204 -7 -445 l0 -438 70 0 70 0 0 173 c0 215
11 263 72 307 52 38 105 40 145 6 l28 -24 3 -231 3 -231 70 0 69 0 0 233 c0
138 -5 248 -11 272 -35 124 -205 174 -329 97 l-50 -31 0 159 0 160 -63 0 c-35
0 -67 -3 -70 -7z"/>
<path d="M432 1229 c-74 -13 -125 -41 -161 -91 -39 -52 -55 -109 -47 -165 13
-95 73 -165 186 -215 174 -79 210 -99 225 -128 20 -39 19 -69 -5 -107 -29 -49
-71 -66 -151 -61 -86 5 -123 28 -127 81 l-3 37 -75 0 -74 0 0 -37 c1 -86 61
-161 152 -188 59 -17 214 -20 270 -5 93 26 178 135 178 228 0 120 -49 183
-199 253 -178 83 -195 94 -214 133 -23 45 -17 78 23 117 26 26 35 29 97 29 76
0 110 -16 115 -53 3 -20 9 -22 76 -25 l72 -3 0 36 c0 63 -42 120 -110 149 -47
19 -162 27 -228 15z"/>
<path d="M4900 785 l0 -427 203 5 c111 2 218 10 237 16 85 26 160 130 160 221
0 46 -28 121 -58 153 -9 11 -34 28 -54 38 l-37 19 44 44 c107 108 92 266 -33
328 -44 21 -61 23 -254 26 l-208 4 0 -427z m376 287 c28 -15 48 -65 39 -99
-19 -76 -83 -113 -195 -113 l-70 0 0 116 0 117 103 -5 c56 -2 112 -10 123 -16z
m-7 -365 c81 -41 104 -133 46 -187 -28 -27 -87 -39 -192 -39 l-73 -1 0 131 0
131 88 -6 c59 -5 101 -14 131 -29z"/>
<path d="M6890 1055 l0 -65 -50 0 -50 0 0 -65 0 -65 49 0 49 0 4 -182 c3 -172
5 -186 28 -233 34 -68 93 -98 188 -97 37 1 81 5 97 10 29 8 30 11 33 71 3 58
1 63 -15 56 -10 -4 -45 -9 -78 -12 -103 -8 -114 17 -115 244 l0 142 88 3 87 3
0 60 0 60 -87 3 -88 3 0 64 0 65 -70 0 -70 0 0 -65z"/>
<path d="M1730 979 c-24 -11 -53 -27 -62 -36 -17 -15 -18 -14 -18 16 l0 32
-67 -3 -68 -3 -3 -312 -2 -313 69 0 69 0 4 198 c4 215 10 241 65 280 42 29 83
35 131 18 l42 -15 0 73 c0 68 -2 74 -22 80 -42 11 -93 6 -138 -15z"/>
<path d="M2090 991 c-94 -31 -155 -91 -167 -165 l-6 -36 76 0 c74 0 76 0 79
27 5 42 49 67 115 67 49 -1 60 -5 80 -28 14 -16 23 -40 23 -60 l0 -32 -102
-24 c-217 -50 -302 -134 -267 -262 33 -126 192 -171 326 -93 l43 26 10 -26 c9
-24 14 -25 81 -25 70 0 71 1 64 22 -4 13 -11 129 -14 258 -8 272 -11 284 -96
328 -40 20 -67 26 -135 28 -47 2 -96 0 -110 -5z m200 -363 c0 -86 -60 -158
-137 -165 -39 -4 -52 -1 -70 17 -57 52 -5 111 132 151 77 23 75 23 75 -3z"/>
<path d="M3290 985 c-83 -26 -150 -103 -150 -169 0 -26 1 -26 75 -26 73 0 75
1 75 25 0 51 79 85 149 65 50 -14 61 -28 61 -76 l0 -43 -57 -11 c-224 -46
-313 -113 -313 -236 0 -43 36 -106 75 -133 71 -48 182 -45 259 5 39 26 55 22
56 -13 0 -9 22 -13 76 -13 67 0 75 2 70 16 -16 42 -26 163 -26 325 0 167 -1
178 -23 210 -38 57 -98 83 -197 86 -54 2 -101 -2 -130 -12z m193 -448 c-27
-45 -78 -77 -124 -77 -70 0 -102 61 -58 109 24 25 48 37 134 61 l60 17 3 -39
c2 -25 -4 -51 -15 -71z"/>
<path d="M3975 981 c-22 -10 -46 -25 -54 -34 -20 -25 -31 -21 -31 13 l0 31
-67 -3 -68 -3 -3 -312 -2 -313 69 0 69 0 4 193 c3 162 6 198 22 230 24 48 67
78 121 85 39 4 48 1 75 -26 l30 -30 0 -226 0 -226 70 0 70 0 0 243 c0 263 -6
293 -61 344 -58 53 -168 69 -244 34z"/>
<path d="M6372 986 c-90 -29 -152 -97 -152 -165 l0 -31 70 0 c60 0 70 2 70 18
0 51 75 90 147 76 50 -9 73 -36 73 -83 l0 -40 -57 -11 c-176 -36 -273 -88
-303 -160 -18 -44 -8 -130 19 -169 55 -77 174 -97 277 -45 33 16 62 30 65 32
4 2 9 -9 13 -23 6 -24 9 -25 81 -25 l75 0 -12 28 c-7 16 -14 121 -17 262 -7
269 -10 278 -98 321 -59 28 -186 36 -251 15z m208 -372 c0 -107 -121 -192
-198 -138 -29 20 -30 74 -1 100 17 15 167 73 192 74 4 0 7 -16 7 -36z"/>
<path d="M2467 983 c-2 -4 53 -145 123 -313 l128 -305 64 -3 64 -3 132 308
c73 169 132 311 132 316 0 4 -29 7 -65 7 -56 0 -66 -3 -79 -22 -7 -13 -49
-107 -92 -210 -44 -103 -82 -188 -85 -188 -3 0 -44 93 -91 208 l-86 207 -70 3
c-39 2 -72 -1 -75 -5z"/>
<path d="M7330 445 l0 -85 90 0 90 0 0 85 0 85 -90 0 -90 0 0 -85z"/>
</g>
</svg>